<?xml version="1.0" encoding="utf-8"?>
<!-- Generator: Adobe Illustrator 27.5.0, SVG Export Plug-In . SVG Version: 6.00 Build 0)  -->
<svg version="1.1" xmlns="http://www.w3.org/2000/svg" xmlns:xlink="http://www.w3.org/1999/xlink" x="0px" y="0px"
	 viewBox="0 0 500 500" style="enable-background:new 0 0 500 500;" xml:space="preserve">
<g id="BACKGROUND">
	<rect style="fill:#FFFFFF;" width="500" height="500"/>
</g>
<g id="OBJECTS">
	<path style="fill:#E9F2FF;" d="M455.784,158.473c-5.809-65.68-65.19-114.91-130.806-108.417
		c-39.85,3.943-73.181,27.034-91.783,59.256c-10.756,18.632-31.58,28.913-52.875,25.854c-9.499-1.365-19.317-1.599-29.3-0.573
		c-64.878,6.67-112.742,64.85-106.771,129.795c6.078,66.112,64.809,114.526,130.768,108c39.962-3.954,73.369-27.164,91.94-59.527
		c10.709-18.663,31.93-28.474,53.242-25.509c9.189,1.278,18.673,1.499,28.314,0.545C413.768,281.44,461.547,223.637,455.784,158.473
		z"/>
	<rect y="427.35" style="fill:#E9F2FF;" width="500" height="72.65"/>
	<g>
		<g>
			<rect x="64.128" y="376.177" style="fill:#D7E7FF;" width="9.773" height="69.252"/>
			<path style="fill:#ADC6EA;" d="M64.128,396.371c1.576,0.337,3.21,0.52,4.887,0.52c1.678,0,3.309-0.194,4.887-0.53v-20.185h-9.773
				V396.371z"/>
			<g>
				
					<ellipse transform="matrix(0.5414 -0.8408 0.8408 0.5414 -273.0113 224.2086)" style="fill:#84AF25;" cx="69.015" cy="362.359" rx="29.007" ry="29.007"/>
				<path style="fill:#ADDA35;" d="M91.987,354.052c0,10.009-10.285,18.123-22.973,18.123c-12.687,0-22.973-8.114-22.973-18.123
					c0-10.009,10.285-18.123,22.973-18.123C81.702,335.929,91.987,344.043,91.987,354.052z"/>
				<g>
					<path style="fill:#477C2C;" d="M101.526,335.214L101.526,335.214L101.526,335.214c-0.803,9.487-9.145,16.526-18.632,15.722l0,0
						C83.697,341.45,92.039,334.411,101.526,335.214z"/>
					<path style="fill:#ADDA35;" d="M84.235,326.621L84.235,326.621L84.235,326.621c6.373,7.073,5.805,17.973-1.268,24.346l0,0
						C76.594,343.893,77.162,332.994,84.235,326.621z"/>
				</g>
				<g>
					<path style="fill:#477C2C;" d="M31.855,387.927L31.855,387.927L31.855,387.927c0.803-9.487,9.145-16.526,18.631-15.722l0,0
						C49.683,381.691,41.342,388.731,31.855,387.927z"/>
					<path style="fill:#ADDA35;" d="M49.146,396.52L49.146,396.52L49.146,396.52c-6.373-7.073-5.805-17.973,1.269-24.346l0,0
						C56.787,379.248,56.219,390.148,49.146,396.52z"/>
				</g>
				<g>
					<path style="fill:#477C2C;" d="M99.787,389.397L99.787,389.397L99.787,389.397c-9.487-0.803-16.526-9.145-15.722-18.632l0,0
						C93.551,371.569,100.59,379.91,99.787,389.397z"/>
					<path style="fill:#ADDA35;" d="M108.38,372.107L108.38,372.107L108.38,372.107c-7.073,6.373-17.973,5.805-24.346-1.269l0,0
						C91.108,364.465,102.008,365.033,108.38,372.107z"/>
				</g>
			</g>
		</g>
		<g>
			<path style="fill:#8F78FF;" d="M69.475,454.812L69.475,454.812c-12.147,0-21.994-9.847-21.994-21.994v-29.809h43.989v29.809
				C91.469,444.964,81.622,454.812,69.475,454.812z"/>
			<polygon style="fill:#6636CE;" points="47.48,418.15 91.469,414.243 91.469,408.736 47.48,408.736 			"/>
			<path style="fill:#8F78FF;" d="M58.916,452.459h21.118c3.489,0,6.318,2.829,6.318,6.318l0,0H52.598l0,0
				C52.598,455.288,55.426,452.459,58.916,452.459z"/>
		</g>
	</g>
	<g>
		<g>
			<g>
				<rect x="174.23" y="55.571" style="fill:#6B8AD6;" width="151.539" height="94.314"/>
			</g>
			<g>
				<polygon style="fill:#F7F7F7;" points="194.689,131.376 193.999,130.685 222.008,102.744 238.508,119.204 255.647,102.107 
					261.464,107.91 291.774,77.676 292.463,78.367 261.464,109.29 255.647,103.487 238.508,120.583 222.008,104.124 				"/>
			</g>
			<g>
				<g>
					<rect x="184.043" y="65.611" style="fill:#F7F7F7;" width="0.977" height="79.201"/>
				</g>
				<g>
					<rect x="179.165" y="138.509" style="fill:#F7F7F7;" width="139.174" height="0.977"/>
				</g>
			</g>
			<g>
				<polygon style="fill:#F7F7F7;" points="294.309,80.657 289.312,75.672 295.906,74.079 				"/>
			</g>
		</g>
	</g>
	<g>
		<g>
			<path style="fill:#FF833E;" d="M462.576,458.712h-44.701c-1.96,0-3.549-1.589-3.549-3.549v-7.873c0-1.96,1.589-3.549,3.549-3.549
				h44.701c1.96,0,3.549,1.589,3.549,3.549v7.873C466.125,457.123,464.536,458.712,462.576,458.712z"/>
			<path style="fill:#FFA840;" d="M450.113,458.712h-44.701c-1.96,0-3.549-1.589-3.549-3.549v-7.873c0-1.96,1.589-3.549,3.549-3.549
				h44.701c1.96,0,3.549,1.589,3.549,3.549v7.873C453.662,457.123,452.073,458.712,450.113,458.712z"/>
			<path style="fill:#FFC943;" d="M425.817,458.712v-14.97h-21.034c-1.612,0-2.919,1.307-2.919,2.919v9.132
				c0,1.612,1.307,2.919,2.919,2.919H425.817z"/>
			<rect x="428.699" y="443.741" style="fill:#FFC943;" width="5.314" height="14.97"/>
			<rect x="436.82" y="443.741" style="fill:#FFC943;" width="2.807" height="14.97"/>
		</g>
		<g>
			<path style="fill:#FF833E;" d="M450.113,443.816h-44.701c-1.96,0-3.549-1.589-3.549-3.549v-7.873c0-1.96,1.589-3.549,3.549-3.549
				h44.701c1.96,0,3.549,1.589,3.549,3.549v7.873C453.662,442.228,452.073,443.816,450.113,443.816z"/>
			<path style="fill:#FFA840;" d="M437.65,443.816H392.95c-1.96,0-3.548-1.589-3.548-3.549v-7.873c0-1.96,1.589-3.549,3.548-3.549
				h44.701c1.96,0,3.549,1.589,3.549,3.549v7.873C441.199,442.228,439.61,443.816,437.65,443.816z"/>
			<path style="fill:#FFC943;" d="M413.354,443.816v-14.97H392.32c-1.612,0-2.919,1.307-2.919,2.919v9.132
				c0,1.612,1.307,2.919,2.919,2.919H413.354z"/>
			<rect x="416.236" y="428.846" style="fill:#FFC943;" width="5.314" height="14.97"/>
			<rect x="424.357" y="428.846" style="fill:#FFC943;" width="2.807" height="14.97"/>
		</g>
		<g>
			<path style="fill:#FF833E;" d="M454.342,428.921h-44.701c-1.96,0-3.549-1.589-3.549-3.549v-7.873c0-1.96,1.589-3.549,3.549-3.549
				h44.701c1.96,0,3.549,1.589,3.549,3.549v7.873C457.891,427.332,456.302,428.921,454.342,428.921z"/>
			<path style="fill:#FFA840;" d="M441.88,428.921h-44.701c-1.96,0-3.549-1.589-3.549-3.549v-7.873c0-1.96,1.589-3.549,3.549-3.549
				h44.701c1.96,0,3.549,1.589,3.549,3.549v7.873C445.428,427.332,443.839,428.921,441.88,428.921z"/>
			<path style="fill:#FFC943;" d="M417.583,428.921v-14.97H396.55c-1.612,0-2.919,1.307-2.919,2.919v9.132
				c0,1.612,1.307,2.919,2.919,2.919H417.583z"/>
			<rect x="420.465" y="413.95" style="fill:#FFC943;" width="5.314" height="14.97"/>
			<rect x="428.586" y="413.95" style="fill:#FFC943;" width="2.807" height="14.97"/>
		</g>
		<g>
			<path style="fill:#FF833E;" d="M450.113,414.025h-44.701c-1.96,0-3.549-1.589-3.549-3.549v-7.873c0-1.96,1.589-3.549,3.549-3.549
				h44.701c1.96,0,3.549,1.589,3.549,3.549v7.873C453.662,412.436,452.073,414.025,450.113,414.025z"/>
			<path style="fill:#FFA840;" d="M437.65,414.025H392.95c-1.96,0-3.548-1.589-3.548-3.549v-7.873c0-1.96,1.589-3.549,3.548-3.549
				h44.701c1.96,0,3.549,1.589,3.549,3.549v7.873C441.199,412.436,439.61,414.025,437.65,414.025z"/>
			<path style="fill:#FFC943;" d="M413.354,414.025v-14.97H392.32c-1.612,0-2.919,1.307-2.919,2.919v9.132
				c0,1.612,1.307,2.919,2.919,2.919H413.354z"/>
			<rect x="416.236" y="399.055" style="fill:#FFC943;" width="5.314" height="14.97"/>
			<rect x="424.357" y="399.055" style="fill:#FFC943;" width="2.807" height="14.97"/>
		</g>
		<g>
			<path style="fill:#FF833E;" d="M454.342,399.129h-44.701c-1.96,0-3.549-1.589-3.549-3.549v-7.873c0-1.96,1.589-3.549,3.549-3.549
				h44.701c1.96,0,3.549,1.589,3.549,3.549v7.873C457.891,397.541,456.302,399.129,454.342,399.129z"/>
			<path style="fill:#FFA840;" d="M441.88,399.129h-44.701c-1.96,0-3.549-1.589-3.549-3.549v-7.873c0-1.96,1.589-3.549,3.549-3.549
				h44.701c1.96,0,3.549,1.589,3.549,3.549v7.873C445.428,397.541,443.839,399.129,441.88,399.129z"/>
			<path style="fill:#FFC943;" d="M417.583,399.129v-14.97H396.55c-1.612,0-2.919,1.307-2.919,2.919v9.132
				c0,1.612,1.307,2.919,2.919,2.919H417.583z"/>
			<rect x="420.465" y="384.159" style="fill:#FFC943;" width="5.314" height="14.97"/>
			<rect x="428.586" y="384.159" style="fill:#FFC943;" width="2.807" height="14.97"/>
		</g>
	</g>
	<g>
		<g>
			<g>
				<path style="fill:#FFB692;" d="M279.464,185.646c-8.148-6.021-12.968-11.037-13.285-11.37l7.239-6.899
					c0.115,0.12,11.708,12.137,29.2,20.789c22.856,11.307,44.609,11.853,64.655,1.621l4.546,8.907
					c-22.782,11.628-48.344,11.038-73.923-1.708C290.687,193.393,284.452,189.331,279.464,185.646z"/>
			</g>
			<g>
				<path style="fill:#FFB692;" d="M279.464,185.646c-8.148-6.021-12.968-11.037-13.285-11.37l7.239-6.899
					c0.115,0.12,11.708,12.137,29.2,20.789c22.856,11.307,44.609,11.853,64.655,1.621l4.546,8.907
					c-22.782,11.628-48.344,11.038-73.923-1.708C290.687,193.393,284.452,189.331,279.464,185.646z"/>
			</g>
			<path style="fill:#D88D87;" d="M297.869,185.662l-6.36,7.88c1.768,1.021,3.61,2.026,5.526,3.001l4.351-9
				C300.185,186.928,299.01,186.3,297.869,185.662z"/>
			<g>
				<path style="fill:#6636CE;" d="M292.98,197.812l7.618-14.07c25.458,13.786,49.325,13.812,71.048,0.107
					c3.47-2.189,8.054-1.281,10.538,1.985l0,0c2.831,3.722,1.892,9.096-2.063,11.593
					C346.826,218.445,314.684,209.563,292.98,197.812z"/>
			</g>
			<g>
				<path style="fill:#FFB692;" d="M274.018,180.533c6.88,3.956,10.738-6.922,10.738-6.922l6.817-4.301c0,0-4.095-5.905-9.207-0.832
					c0,0,1.613-10.039-1.105-13.51c-1.276-1.63-9.22-2.854-13.309-1.474c-0.867,0.292-1.318,1.234-1.003,2.094
					c0.757,2.063,1.855,6.316,0.145,10.557C264.71,172.053,264.789,181.144,274.018,180.533z"/>
				<path style="fill:#D88D87;" d="M282.366,168.479c0,0-5.759-1.31-8.913,4.8c0,0,3.715-4.889,8.836-4.346L282.366,168.479z"/>
				<path style="fill:#D88D87;" d="M270.642,167.409c0,0,4.556-1.468,9.237-0.445C279.879,166.964,276.299,163.236,270.642,167.409z
					"/>
				<g>
					<path style="fill:#D88D87;" d="M272.384,166.903l0.357-0.157c0,0,0.181-8.116-3.868-13.505
						c-0.133,0.03-0.262,0.062-0.389,0.095C269.797,155.529,272.591,160.928,272.384,166.903z"/>
					<path style="fill:#D88D87;" d="M277.733,166.169l0.594,0.209c0,0,2.589-7.697-0.621-12.925
						c-1.487-0.326-3.25-0.533-4.969-0.554c0.971,1.721,3.512,7.008,2.193,13.235l0.481,0.05c0,0,2.631-7.734-1.765-13.112
						l3.427,0.264C277.074,153.336,280.316,159.046,277.733,166.169z"/>
				</g>
			</g>
		</g>
		<g>
			<g>
				<g>
					
						<ellipse transform="matrix(0.3019 -0.9533 0.9533 0.3019 13.6664 367.2237)" style="fill:#AD4825;" cx="257.569" cy="174.281" rx="39.682" ry="39.682"/>
					<path style="fill:#FFA840;" d="M299.992,177.156c0.893-21.897-16.134-40.373-38.032-41.266
						c-21.897-0.893-40.373,16.134-41.266,38.032c-0.893,21.898,16.134,40.373,38.032,41.266
						C280.623,216.081,299.099,199.054,299.992,177.156z"/>
					<g>
						<path style="fill:#FFC943;" d="M296.121,158.373L240.319,209.8c2.077,1.216,4.273,2.253,6.574,3.081l51.762-47.705
							C298.018,162.816,297.164,160.542,296.121,158.373z"/>
						<path style="fill:#FFC943;" d="M293.596,153.9c-5.279-8.097-13.44-14.172-23.099-16.72l-49.213,45.355
							c1.753,9.834,7.144,18.463,14.783,24.384L293.596,153.9z"/>
					</g>
					<path style="fill:#FFC943;" d="M292.983,176.871c-0.735,18.027-15.945,32.045-33.972,31.309
						c-18.027-0.735-32.045-15.945-31.309-33.972c0.735-18.027,15.945-32.045,33.972-31.309
						C279.701,143.634,293.719,158.844,292.983,176.871z"/>
					
						<ellipse transform="matrix(0.9868 -0.1621 0.1621 0.9868 -25.0076 44.5144)" style="fill:#FF833E;" cx="260.343" cy="175.539" rx="28.139" ry="28.139"/>
					<g>
						<path style="fill:#FFA840;" d="M285.042,162.116l-40.089,36.947c0.603,0.395,1.219,0.768,1.854,1.117l39.198-36.126
							C285.708,163.393,285.387,162.749,285.042,162.116z"/>
						<path style="fill:#FFA840;" d="M274.17,151.053l-39.358,36.273c1.763,3.81,4.354,7.157,7.554,9.823l40.979-37.767
							C280.949,155.976,277.824,153.121,274.17,151.053z"/>
					</g>
				</g>
			</g>
		</g>
		<g>
			<g>
				<g>
					<polygon style="fill:#FFB692;" points="405.27,443.171 391.051,443.068 392.24,330.975 406.459,331.078 					"/>
				</g>
			</g>
			<g>
				<polygon style="fill:#1D3244;" points="388.294,400.895 387.674,273.509 408.646,273.368 409.266,400.755 				"/>
			</g>
		</g>
		<path style="fill:#252538;" d="M391.3,255.613l-14.883,0c-10.978,0-19.96,8.982-19.96,19.96v0c0,10.978,8.982,19.96,19.96,19.96
			H391.3c10.978,0,19.96-8.982,19.96-19.96v0C411.259,264.595,402.278,255.613,391.3,255.613z"/>
		<g>
			<g>
				<g>
					<polygon style="fill:#FFB692;" points="363.863,443.171 378.082,443.068 376.893,330.975 362.674,331.078 					"/>
				</g>
			</g>
			<g>
				<polygon style="fill:#1D3244;" points="380.839,400.895 381.459,273.509 360.487,273.368 359.867,400.755 				"/>
			</g>
			<g>
				<polygon style="fill:#252538;" points="388.294,430.326 387.674,273.541 408.646,273.368 409.266,430.154 				"/>
			</g>
			<g>
				<polygon style="fill:#252538;" points="380.839,430.326 381.459,273.541 360.487,273.368 359.867,430.154 				"/>
			</g>
		</g>
		<g>
			<g>
				<path style="fill:#8F78FF;" d="M358.55,426.488l0.11,12.747c0,0-13.279,0.222-17.168,17.794l39.741-0.038v-30.504H358.55z"/>
			</g>
			<path style="fill:#FFFFFF;" d="M359.564,434.563h7.891c1.17,0,2.118-0.948,2.118-2.118l0,0c0-1.17-0.948-2.118-2.118-2.118
				h-7.891c-1.17,0-2.118,0.948-2.118,2.118l0,0C357.446,433.615,358.395,434.563,359.564,434.563z"/>
			<path style="fill:#FFFFFF;" d="M359.564,440.706h7.891c1.17,0,2.118-0.948,2.118-2.118l0,0c0-1.17-0.948-2.118-2.118-2.118
				h-7.891c-1.17,0-2.118,0.948-2.118,2.118l0,0C357.446,439.758,358.395,440.706,359.564,440.706z"/>
			<path style="fill:#FFFFFF;" d="M349.287,443.12c2.517,2.562,4.919,6.917,3.872,13.898l-11.666,0.011
				C343.06,449.947,346.153,445.686,349.287,443.12z"/>
			<rect x="340.816" y="456.093" style="fill:#FFFFFF;" width="41.314" height="3.595"/>
		</g>
		<g>
			<g>
				<path style="fill:#8F78FF;" d="M388.025,426.591l0.11,12.747c0,0-13.279,0.222-17.168,17.794l39.741-0.038v-30.504H388.025z"/>
			</g>
			<path style="fill:#FFFFFF;" d="M389.039,434.666h7.891c1.17,0,2.118-0.948,2.118-2.118l0,0c0-1.17-0.948-2.118-2.118-2.118
				h-7.891c-1.17,0-2.118,0.948-2.118,2.118l0,0C386.921,433.717,387.869,434.666,389.039,434.666z"/>
			<path style="fill:#FFFFFF;" d="M389.039,440.809h7.891c1.17,0,2.118-0.948,2.118-2.118l0,0c0-1.17-0.948-2.118-2.118-2.118
				h-7.891c-1.17,0-2.118,0.948-2.118,2.118l0,0C386.921,439.861,387.869,440.809,389.039,440.809z"/>
			<path style="fill:#FFFFFF;" d="M378.762,443.223c2.517,2.562,4.919,6.917,3.872,13.898l-11.666,0.011
				C372.535,450.05,375.628,445.789,378.762,443.223z"/>
			<rect x="370.291" y="456.196" style="fill:#FFFFFF;" width="41.314" height="3.595"/>
		</g>
		<g>
			<path style="fill:#8F78FF;" d="M353.165,275.654c-0.015,2.689,1.5,5.17,3.926,6.33c5.371,2.567,13.171,5.377,22.853,6.056
				c13.628,0.956,24.574-2.759,31.111-5.765c2.462-1.132,4.027-3.608,4.042-6.317c0.131-24.44,0.262-44.549,0.393-68.843
				c0.076-14.031-11.239-25.471-25.27-25.545l-12.802-0.068c-13.103-0.069-23.781,10.496-23.851,23.599L353.165,275.654z"/>
		</g>
		<path style="fill:#FFB692;" d="M401.901,187.231c0,3.644-8.078,6.598-18.043,6.598s-18.043-2.954-18.043-6.598
			c0-3.644,8.078-6.598,18.043-6.598S401.901,183.587,401.901,187.231z"/>
		<path style="fill:#9B8DFF;" d="M368.062,225.63L368.062,225.63c-4.636,0-8.394-3.758-8.394-8.394V204.93h16.787v12.306
			C376.455,221.872,372.697,225.63,368.062,225.63z"/>
		<g>
			<g>
				<g>
					<g>
						<path style="fill:#FFB692;" d="M383.655,143.898l-0.976,0.012c-6.259,0.076-11.271,5.212-11.195,11.471l0.378,31.03
							l23.642-0.288l-0.378-31.03C395.049,148.833,389.914,143.821,383.655,143.898z"/>
					</g>
				</g>
			</g>
			<path style="fill:#D88D87;" d="M395.395,177.175l-0.269-22.082c-0.048-3.915-2.075-7.341-5.118-9.34l-13.856,0.335
				c-2.865,2.089-4.714,5.479-4.668,9.294l0.299,24.522c3.074,1.744,6.633,2.724,10.424,2.632
				C387.313,182.412,391.916,180.388,395.395,177.175z"/>
			<g>
				<g>
					<path style="fill:#252538;" d="M383.379,107.333c-1.406-0.007-2.887-1.398-4.241-1.213c-1.388,0.19-2.438,1.933-3.756,2.312
						c-1.342,0.385-3.156-0.53-4.41,0.035c-1.269,0.572-1.783,2.54-2.947,3.281c-1.171,0.745-3.171,0.378-4.221,1.279
						c-1.052,0.902-0.993,2.935-1.906,3.977c-0.912,1.04-2.935,1.248-3.693,2.411c-0.753,1.156-0.127,3.09-0.712,4.352
						c-0.579,1.249-2.462,2.018-2.862,3.355c-0.393,1.314,0.755,2.99,0.55,4.376c-0.2,1.352-1.789,2.621-1.797,4.028
						c-0.007,1.406,1.568,2.693,1.754,4.047c0.19,1.388-0.976,3.052-0.597,4.37c0.385,1.342,2.26,2.132,2.826,3.386
						c0.572,1.269-0.075,3.195,0.666,4.36c0.745,1.171,2.767,1.401,3.667,2.45c0.902,1.052,0.822,3.084,1.863,3.997
						c1.04,0.912,3.043,0.566,4.207,1.324c1.156,0.753,1.649,2.727,2.911,3.313c1.249,0.579,3.072-0.317,4.409,0.083
						c1.314,0.393,2.345,2.147,3.731,2.352c1.352,0.2,2.848-1.175,4.254-1.167c1.406,0.008,2.887,1.399,4.241,1.213
						c1.388-0.19,2.438-1.933,3.756-2.311c1.342-0.385,3.156,0.53,4.41-0.036c1.269-0.572,1.783-2.54,2.947-3.281
						c1.171-0.745,3.171-0.378,4.221-1.279c1.052-0.902,0.993-2.935,1.906-3.977c0.912-1.04,2.935-1.247,3.693-2.411
						c0.753-1.156,0.127-3.09,0.712-4.352c0.579-1.249,2.462-2.018,2.862-3.355c0.393-1.314-0.755-2.991-0.55-4.376
						c0.2-1.352,1.789-2.621,1.797-4.028c0.008-1.406-1.568-2.693-1.754-4.047c-0.19-1.388,0.976-3.052,0.597-4.37
						c-0.385-1.342-2.26-2.132-2.826-3.386c-0.572-1.269,0.075-3.195-0.666-4.36c-0.745-1.171-2.767-1.401-3.667-2.45
						c-0.902-1.052-0.822-3.084-1.864-3.997c-1.04-0.912-3.043-0.566-4.207-1.324c-1.156-0.753-1.649-2.727-2.911-3.313
						c-1.249-0.579-3.072,0.317-4.409-0.082c-1.314-0.393-2.345-2.147-3.731-2.352C386.281,105.966,384.786,107.341,383.379,107.333
						z"/>
				</g>
				<g>
					<g>
						<path style="fill:#D88D87;" d="M361.054,154.077l46.539,0.053c2.281,0.002,4.133-1.845,4.135-4.126l0,0
							c0.002-2.281-1.845-4.133-4.126-4.135l-46.539-0.053c-2.281-0.002-4.133,1.845-4.135,4.126l0,0
							C356.926,152.224,358.773,154.075,361.054,154.077z"/>
						<path style="fill:#9E6461;" d="M407.929,152.38c1.179-0.162,2.069-1.184,2.071-2.377c0.001-1.325-1.075-2.404-2.4-2.405
							l-46.539-0.053c-0.112,0-0.225,0.007-0.334,0.022c-1.18,0.162-2.069,1.184-2.071,2.378c-0.001,1.325,1.075,2.404,2.4,2.405
							l46.539,0.053C407.707,152.402,407.819,152.395,407.929,152.38z"/>
					</g>
					<path style="fill:#FFB692;" d="M383.234,179.052L383.234,179.052c5.227,0,17.116-4.637,18.868-17.352l3.916-23.676
						c0-12.063-9.779-21.842-21.843-21.842h-1.881c-12.063,0-21.843,9.779-21.843,21.842l3.916,23.676
						C366.359,174.73,375.799,179.052,383.234,179.052z"/>
					<path style="fill:#D88D87;" d="M361.369,127.739l43.716,8.819c-0.061-4.003-1.227-7.868-3.293-11.196l-28.781-9.182
						C367.916,118.319,363.657,122.365,361.369,127.739z"/>
					<g>
						<g>
							<path style="fill:#FFFFFF;" d="M364.945,146.469c0,2.876,2.215,4.41,4.947,4.41s4.947-1.534,4.947-4.41
								c0-2.876-2.215-4.28-4.947-4.28S364.945,143.593,364.945,146.469z"/>
							<g>
								<path style="fill:#252538;" d="M374.685,146.469c-0.114-1.194-0.629-2.302-1.555-2.939
									c-0.916-0.642-2.082-0.897-3.238-0.897c-1.157-0.003-2.322,0.253-3.241,0.894c-0.926,0.638-1.443,1.747-1.553,2.942h-0.308
									c-0.06-0.632,0.017-1.29,0.24-1.915c0.236-0.619,0.641-1.188,1.16-1.618c1.047-0.874,2.416-1.18,3.702-1.191
									c1.286,0.008,2.655,0.313,3.705,1.187c0.519,0.431,0.922,1.001,1.16,1.62c0.221,0.627,0.299,1.285,0.236,1.917H374.685z"/>
							</g>
							<path style="fill:#252538;" d="M368.891,142.834c2.004,0.002,3.628,1.629,3.626,3.633c-0.002,2.005-1.629,3.628-3.633,3.626
								c-2.004-0.002-3.628-1.629-3.626-3.633C365.26,144.456,366.886,142.832,368.891,142.834z"/>
						</g>
					</g>
					<g>
						<g>
							<path style="fill:#FFFFFF;" d="M394.733,146.469c0,2.876-2.215,4.41-4.947,4.41c-2.732,0-4.947-1.534-4.947-4.41
								c0-2.876,2.215-4.28,4.947-4.28C392.518,142.189,394.733,143.593,394.733,146.469z"/>
							<g>
								<path style="fill:#252538;" d="M384.685,146.469c-0.062-0.632,0.015-1.29,0.236-1.917c0.238-0.619,0.641-1.189,1.16-1.62
									c1.05-0.874,2.419-1.179,3.705-1.187c1.285,0.011,2.655,0.316,3.702,1.191c0.518,0.43,0.924,0.999,1.16,1.618
									c0.223,0.626,0.3,1.283,0.24,1.915h-0.308c-0.11-1.195-0.626-2.304-1.553-2.942c-0.918-0.641-2.084-0.896-3.241-0.894
									c-1.156,0.001-2.322,0.255-3.238,0.897c-0.926,0.636-1.442,1.744-1.556,2.939H384.685z"/>
							</g>
							<path style="fill:#252538;" d="M388.504,142.834c-2.005,0.002-3.628,1.629-3.626,3.633c0.002,2.005,1.629,3.628,3.633,3.626
								c2.005-0.002,3.628-1.629,3.626-3.633C392.136,144.456,390.509,142.832,388.504,142.834z"/>
						</g>
					</g>
					<g>
						<path style="fill:#BA726E;" d="M383.584,155.047h-7.507c-0.353,0-0.638,0.286-0.638,0.639v0c0,2.42,1.966,4.381,4.392,4.381
							l0,0c2.426,0,4.392-1.962,4.392-4.381v0C384.223,155.333,383.937,155.047,383.584,155.047z"/>
						<g>
							<path style="fill:#D88D87;" d="M379.831,160.402L379.831,160.402c1.311,0,2.374-1.063,2.374-2.374v-10.926
								c0-1.311-1.063-2.374-2.374-2.374l0,0c-1.311,0-2.373,1.063-2.373,2.374v10.926
								C377.457,159.34,378.52,160.402,379.831,160.402z"/>
						</g>
					</g>
					<g>
						<path style="fill:#2B2B3A;" d="M365.782,138.213c0.827-0.261,7.612-0.609,7.917-0.609c0.305,0,1.131,2.392,1.131,2.392
							s-8.7-0.435-9.135,0c-0.435,0.435-2.958,2.741-2.958,2.61C362.737,142.476,364.955,138.474,365.782,138.213z"/>
						<path style="fill:#2B2B3A;" d="M385.962,137.604c0.305,0,7.091,0.348,7.917,0.609c0.826,0.261,3.045,4.263,3.045,4.393
							c0,0.131-2.523-2.175-2.958-2.61c-0.435-0.435-9.135,0-9.135,0S385.658,137.604,385.962,137.604z"/>
					</g>
					<g>
						<g>
							<path style="fill:#252538;" d="M376.924,162.028c2.033-0.084,4.889-0.338,7.636-1.047c1.807-0.467,3.062,1.906,1.93,3.692
								c-1.205,1.9-3.135,3.588-6.181,3.507c-2.496-0.066-3.999-0.899-4.9-1.93C374.133,164.79,375.112,162.103,376.924,162.028z"/>
						</g>
						<g>
							<path style="fill:#FF9292;" d="M380.309,168.18c3.045,0.081,4.976-1.607,6.181-3.507c0.17-0.268,0.28-0.549,0.348-0.831
								c-1.015-0.606-2.42-0.965-4.382-0.768c-3.029,0.305-4.715,2.224-5.653,4.26c-0.002,0.004-0.003,0.008-0.004,0.012
								C377.668,167.818,378.806,168.139,380.309,168.18z"/>
						</g>
						<g>
							<path style="fill:#FFABAB;" d="M379.151,165.552c0.238,0.543,1.388,0.591,2.568,0.108c1.18-0.483,1.943-1.315,1.705-1.858
								c-0.238-0.543-1.387-0.591-2.568-0.108C379.676,164.177,378.913,165.009,379.151,165.552z"/>
						</g>
						<g>
							<path style="fill:#FFFFFF;" d="M376.924,162.028c2.033-0.084,4.889-0.338,7.636-1.047c1.11-0.287,2.009,0.499,2.277,1.561
								c-1.703,1.201-4.19,2.046-7.002,2.228c-1.803,0.117-3.508-0.054-4.987-0.448C374.972,163.16,375.781,162.075,376.924,162.028
								z"/>
						</g>
					</g>
				</g>
				<g>
					<path style="fill:#252538;" d="M378.656,114.705l5.937-0.161c12.304-0.333,22.549,9.371,22.882,21.675l0.046,1.686
						c0.005,0.177,0.003,0.353-0.007,0.526c-0.178,3.346-5.234,3.173-5.324-0.176l-0.022-0.813
						c-0.16-5.916-5.086-10.582-11.003-10.422l-18.396,0.498c-5.916,0.16-10.582,5.086-10.422,11.002l0.022,0.813
						c0.091,3.349-4.948,3.795-5.307,0.464c-0.019-0.173-0.03-0.348-0.035-0.525l-0.046-1.686
						C356.648,125.283,366.352,115.038,378.656,114.705z"/>
				</g>
				<g>
					<path style="fill:#F2C50A;" d="M388.065,103.25c0.078,4.434,7.04,4.21,6.832-0.221C394.82,98.596,387.857,98.82,388.065,103.25
						z"/>
					<path style="fill:#EF3F1D;" d="M361.579,122.762l46.861,10.854c2.07,0.48,4.137-0.81,4.616-2.88l0,0
						c3.844-18.504-11.404-27.401-27.514-29.337c-12.037-2.789-24.055,4.709-26.843,16.746
						C358.219,120.216,359.509,122.283,361.579,122.762z"/>
					<path style="fill:#ED830F;" d="M345.259,118.982l66.929,15.502l0.798-3.447l-66.929-15.502
						c-0.952-0.221-1.902,0.372-2.123,1.324l0,0C343.714,117.811,344.307,118.762,345.259,118.982z"/>
					<path style="fill:#F2C50A;" d="M392.235,126.231c-0.053,0.034-0.217-0.007-0.476-0.11l-45.702-10.585
						c-0.952-0.221-1.902,0.372-2.123,1.324c-0.22,0.952,0.372,1.902,1.324,2.123l46.177,10.696L392.235,126.231z"/>
				</g>
			</g>
		</g>
		<g>
			<g>
				<g>
					<path style="fill:#FFB692;" d="M302.951,207.589c5.1-6.331-5.293-11.968-5.293-11.968l-3.266-7.583
						c0,0-6.628,3.202-2.309,9.183c0,0-7.228-1.325-10.993-5.329c-4.596-4.887-8.063,10.55-5.079,16.673
						c1.621,3.326,6.978,2.057,10.997,4.464C292.607,216.382,302.098,217.024,302.951,207.589z"/>
				</g>
				<g>
					<path style="fill:#D88D87;" d="M288.42,204.89l-0.111,0.59c0,0-7.916-0.505-13.376-4.278c0.018-0.363,0.042-0.725,0.076-1.087
						C277.059,201.831,281.215,204.348,288.42,204.89z"/>
					<path style="fill:#D88D87;" d="M287.283,209.186c0,0-7.144-0.38-11.965-2.664c-0.082-0.356-0.15-0.727-0.207-1.108
						c2.035,1.016,6.306,2.756,12.306,3.143L287.283,209.186z"/>
					<path style="fill:#D88D87;" d="M289.497,200.933c0,0-8.088-0.268-13.473-5.883c0.16-0.484,0.335-0.937,0.523-1.355
						c2.039,2.256,6.121,5.639,13.002,6.829L289.497,200.933z"/>
				</g>
			</g>
			<g>
				<path style="fill:#FFB692;" d="M309.041,217.781c-9.226-4.186-14.988-8.085-15.367-8.344l5.638-8.259
					c0.138,0.093,13.985,9.423,32.899,14.23c24.714,6.283,46.101,2.272,63.568-11.922l6.306,7.761
					c-19.85,16.131-44.972,20.894-72.649,13.773C321.634,223.013,314.688,220.343,309.041,217.781z"/>
			</g>
			<g>
				<path style="fill:#FFB692;" d="M309.041,217.781c-9.226-4.186-14.988-8.085-15.367-8.344l5.638-8.259
					c0.138,0.093,13.985,9.423,32.899,14.23c24.714,6.283,46.101,2.272,63.568-11.922l6.306,7.761
					c-19.85,16.131-44.972,20.894-72.649,13.773C321.634,223.013,314.688,220.343,309.041,217.781z"/>
			</g>
			<path style="fill:#D88D87;" d="M327.043,213.952l-4.573,9.035c1.942,0.63,3.954,1.227,6.031,1.78l2.375-9.711
				C329.573,214.706,328.292,214.338,327.043,213.952z"/>
			<g>
				<path style="fill:#6636CE;" d="M324.8,226.855l4.511-15.351c27.776,8.163,51.122,3.203,69.503-14.739
					c2.936-2.866,7.609-2.936,10.72-0.26l0,0c3.546,3.049,3.751,8.5,0.405,11.768C381.769,235.784,348.48,233.813,324.8,226.855z"/>
			</g>
		</g>
	</g>
	<g>
		<path style="fill:#252538;" d="M151.826,147.858c-4.841-15.72-16.036-24.339-29.828-24.417l0-0.004
			c-0.032,0-0.063,0.002-0.095,0.002c-0.032,0-0.063-0.002-0.095-0.002l0,0.004c-13.792,0.079-24.987,8.698-29.828,24.417
			c-3.107,10.09-4.229,25.866-4.635,35.942c-0.3,7.462,3.05,14.62,9.001,19.131c5.402,4.094,13.44,8.446,24.791,10.701h1.53
			c11.351-2.255,19.389-6.607,24.791-10.701c5.952-4.511,9.302-11.669,9.002-19.131
			C156.055,173.724,154.933,157.948,151.826,147.858z"/>
		<g>
			<path style="fill:#252538;" d="M131.604,258.386l-14.404,0.126c-10.625,0.093-19.241,8.841-19.148,19.439v0
				c0.093,10.598,8.862,19.193,19.486,19.1l14.404-0.126c10.625-0.093,19.241-8.841,19.148-19.439v0
				C150.998,266.888,142.229,258.293,131.604,258.386z"/>
			<g>
				<g>
					
						<rect x="138.782" y="300.11" transform="matrix(0.9987 -0.0513 0.0513 0.9987 -19.2159 8.0012)" style="fill:#FFB692;" width="15" height="156.558"/>
				</g>
				<polygon style="fill:#D88D87;" points="138.428,371.695 153.441,371.563 152.741,357.939 137.728,358.071 				"/>
				
					<rect x="140.459" y="421.593" transform="matrix(0.9984 -0.056 0.056 0.9984 -23.6892 9.0104)" style="fill:#EF3F1D;" width="16.894" height="11.083"/>
				
					<rect x="140.08" y="414.061" transform="matrix(0.9984 -0.056 0.056 0.9984 -23.2979 8.9817)" style="fill:#C62433;" width="17.011" height="12.134"/>
				
					<rect x="138.962" y="413.884" transform="matrix(0.9984 -0.056 0.056 0.9984 -23.2189 8.9799)" style="fill:#EF3F1D;" width="19.259" height="9.663"/>
				<g>
					
						<rect x="131.724" y="277.619" transform="matrix(0.9978 -0.0668 0.0668 0.9978 -21.2321 10.251)" style="fill:#252538;" width="21.874" height="89.954"/>
				</g>
				<g>
					<g>
						<path style="fill:#252538;" d="M160.657,430.103l-0.104,11.987c0,0,12.487,0.209,16.144,16.733l-37.37-0.036v-28.684H160.657z
							"/>
					</g>
					<path style="fill:#FFFFFF;" d="M159.703,437.696h-7.42c-1.1,0-1.992-0.892-1.992-1.992l0,0c0-1.1,0.892-1.992,1.992-1.992h7.42
						c1.1,0,1.992,0.892,1.992,1.992l0,0C161.695,436.805,160.803,437.696,159.703,437.696z"/>
					<path style="fill:#FFFFFF;" d="M159.703,443.473h-7.42c-1.1,0-1.992-0.892-1.992-1.992l0,0c0-1.1,0.892-1.992,1.992-1.992h7.42
						c1.1,0,1.992,0.892,1.992,1.992l0,0C161.695,442.581,160.803,443.473,159.703,443.473z"/>
					<path style="fill:#FFFFFF;" d="M169.367,445.743c-2.367,2.41-4.625,6.504-3.641,13.069l10.97,0.01
						C175.223,452.163,172.314,448.156,169.367,445.743z"/>
					
						<rect x="138.483" y="457.943" transform="matrix(-1 -1.224647e-16 1.224647e-16 -1 315.8157 919.266)" style="fill:#FFFFFF;" width="38.85" height="3.381"/>
				</g>
			</g>
			<g>
				<g>
					<polygon style="fill:#FFB692;" points="101.195,457.315 105.399,300.876 120.379,300.106 116.175,456.545 					"/>
				</g>
				<polygon style="fill:#D88D87;" points="118.788,359.315 103.825,359.446 103.459,373.079 118.422,372.948 				"/>
				
					<rect x="100.587" y="420.736" transform="matrix(0.9996 0.0269 -0.0269 0.9996 11.4864 -2.7769)" style="fill:#EF3F1D;" width="16.894" height="10.255"/>
				
					<rect x="100.652" y="420.737" transform="matrix(0.9996 0.0269 -0.0269 0.9996 11.4218 -2.7795)" style="fill:#C62433;" width="16.894" height="5.448"/>
				
					<rect x="99.562" y="415.574" transform="matrix(0.9996 0.0269 -0.0269 0.9996 11.3294 -2.7834)" style="fill:#EF3F1D;" width="19.259" height="8.853"/>
				<g>
					
						<rect x="70.577" y="315.878" transform="matrix(0.012 -0.9999 0.9999 0.012 -216.5856 434.4372)" style="fill:#252538;" width="81.928" height="21.874"/>
				</g>
				<g>
					<g>
						<path style="fill:#252538;" d="M120.212,430.103l-0.104,11.987c0,0,12.487,0.209,16.144,16.733l-37.37-0.036v-28.684H120.212z
							"/>
					</g>
					<path style="fill:#FFFFFF;" d="M119.258,437.696h-7.42c-1.1,0-1.992-0.892-1.992-1.992l0,0c0-1.1,0.892-1.992,1.992-1.992h7.42
						c1.1,0,1.992,0.892,1.992,1.992l0,0C121.251,436.805,120.359,437.696,119.258,437.696z"/>
					<path style="fill:#FFFFFF;" d="M119.258,443.473h-7.42c-1.1,0-1.992-0.892-1.992-1.992l0,0c0-1.1,0.892-1.992,1.992-1.992h7.42
						c1.1,0,1.992,0.892,1.992,1.992l0,0C121.251,442.581,120.359,443.473,119.258,443.473z"/>
					<path style="fill:#FFFFFF;" d="M128.923,445.743c-2.367,2.41-4.625,6.504-3.641,13.069l10.97,0.01
						C134.778,452.163,131.87,448.156,128.923,445.743z"/>
					
						<rect x="98.038" y="457.943" transform="matrix(-1 -1.224647e-16 1.224647e-16 -1 234.9267 919.266)" style="fill:#FFFFFF;" width="38.85" height="3.381"/>
				</g>
			</g>
			<g>
				<g>
					<path style="fill:#FFB692;" d="M207.768,278.473c9.867,2.298,16.812,2.715,17.27,2.741l0.558-9.984
						c-0.166-0.01-16.831-1.043-34.76-8.749c-23.428-10.067-37.949-26.274-43.159-48.169l-9.728,2.315
						c5.921,24.883,22.946,43.96,49.235,55.168C194.593,274.953,201.729,277.066,207.768,278.473z"/>
				</g>
				<g>
					<path style="fill:#FFB692;" d="M207.768,278.473c9.867,2.298,16.812,2.715,17.27,2.741l0.558-9.984
						c-0.166-0.01-16.831-1.043-34.76-8.749c-23.428-10.067-37.949-26.274-43.159-48.169l-9.728,2.315
						c5.921,24.883,22.946,43.96,49.235,55.168C194.593,274.953,201.729,277.066,207.768,278.473z"/>
				</g>
				<path style="fill:#D88D87;" d="M195.822,264.472l-1.875,9.951c-1.924-0.684-3.883-1.435-5.868-2.261l4.03-9.148
					C193.356,263.53,194.596,264.017,195.822,264.472z"/>
				<g>
					<path style="fill:#FFC943;" d="M189.743,276.072l5.771-14.923c-27.003-10.441-42.499-28.593-46.152-54.017
						c-0.584-4.062-4.247-6.962-8.344-6.735l0,0c-4.669,0.259-8.151,4.458-7.488,9.087
						C139.119,248.461,166.723,267.171,189.743,276.072z"/>
				</g>
				<g>
					<path style="fill:#FFB692;" d="M215.192,279.303c-7.473-2.672-1.693-12.663-1.693-12.663l-1.146-7.979
						c0,0,7.151-0.712,6.603,6.469c0,0,6.597-7.737,11.002-7.919c2.068-0.086,8.151,5.169,9.752,9.176
						c0.34,0.85-0.085,1.804-0.944,2.121c-2.061,0.762-6.011,2.684-8.13,6.735C227.683,280.89,220.711,286.725,215.192,279.303z"/>
					<path style="fill:#D88D87;" d="M218.955,265.132c0,0,4.731,3.535,2.126,9.898c0,0,1.313-5.998-2.421-9.545L218.955,265.132z"/>
					<path style="fill:#D88D87;" d="M227.373,273.363c0,0-1.837-4.42-5.651-7.32C221.722,266.043,226.88,266.351,227.373,273.363z"
						/>
					<g>
						<path style="fill:#D88D87;" d="M226.628,271.709l-0.112-0.374c0,0,6.061-5.4,12.789-5.812c0.063,0.12,0.123,0.24,0.18,0.358
							C236.964,266.303,231.042,267.677,226.628,271.709z"/>
						<path style="fill:#D88D87;" d="M223.718,267.161l-0.544-0.317c0,0,4.181-6.962,10.242-7.908
							c1.213,0.921,2.514,2.129,3.644,3.423c-1.94,0.377-7.613,1.87-11.497,6.912l-0.35-0.333c0,0,4.182-7.019,11.126-7.159
							l-2.423-2.438C233.915,259.342,227.466,260.576,223.718,267.161z"/>
					</g>
				</g>
			</g>
			<g>
				<g>
					<path style="fill:#FF833E;" d="M154.238,277.752c-5.308,2.642-15.102,6.663-28.012,7.165
						c-13.228,0.515-23.516-2.907-29.03-5.19c1.931-8.773,3.861-17.546,5.792-26.318l-5.02-36.449
						c-0.325-9.338,4.051-17.068,13.411-17.392l18.241-0.632c12.068-0.418,18.38,3.742,18.798,15.781l-1.742,38.455L154.238,277.752
						z"/>
				</g>
				<path style="fill:none;stroke:#A83B5D;stroke-width:1.0535;stroke-miterlimit:10;" d="M93.731,177.289"/>
				<path style="fill:#FFC943;" d="M123.704,215.633c-0.522,0-1.052-0.015-1.585-0.046c-4.409-0.252-8.523-1.533-11.586-3.607
					c-3.375-2.286-5.133-5.279-4.951-8.43c0.332-5.766,7.308-10.115,16.226-10.115c0.521,0,1.05,0.015,1.583,0.045
					c4.409,0.252,8.523,1.534,11.585,3.608c3.374,2.286,5.133,5.279,4.951,8.43C139.594,211.284,132.62,215.633,123.704,215.633
					C123.704,215.633,123.704,215.633,123.704,215.633z"/>
				<path style="fill:#FFB692;" d="M107.578,203.665c-0.288,5.002,6.273,9.446,14.654,9.926c8.381,0.48,15.409-3.186,15.697-8.188
					c0.288-5.002-6.273-9.446-14.654-9.926C114.894,194.997,107.866,198.663,107.578,203.665z"/>
				<g>
					<path style="fill:#FFB692;" d="M122.138,160.111L122.138,160.111c6.435-0.056,11.697,5.101,11.753,11.52l0.276,31.461
						l-23.302,0.204l-0.276-31.461C110.533,165.417,115.703,160.168,122.138,160.111z"/>
					<path style="fill:#D88D87;" d="M133.829,164.554l0.174,19.838c0.056,6.419-5.114,11.668-11.549,11.725l0,0
						c-6.435,0.056-11.697-5.101-11.753-11.52l-0.174-19.838"/>
					<path style="fill:#D88D87;" d="M117.714,186.143c-0.089,1.213,2.193,2.368,5.099,2.581c2.905,0.212,5.332-0.599,5.421-1.812
						c0.089-1.213-2.194-2.369-5.098-2.581C120.231,184.119,117.803,184.93,117.714,186.143z"/>
				</g>
			</g>
		</g>
		<g>
			<path style="fill:#4D378C;" d="M143.755,304.313l115.676,89.006c3.351,2.573,8.153,1.942,10.726-1.409l62.987-82.034
				c2.573-3.351,1.942-8.153-1.409-10.726l-115.676-89.006c-3.351-2.573-8.153-1.942-10.726,1.409l-62.987,82.034
				C139.773,296.938,140.404,301.74,143.755,304.313z"/>
			<g>
				<g>
					<g>
						
							<ellipse transform="matrix(0.0673 -0.9977 0.9977 0.0673 8.9391 538.095)" style="fill:#AD4825;" cx="292.273" cy="264.266" rx="39.682" ry="39.682"/>
						
							<ellipse transform="matrix(0.2823 -0.9593 0.9593 0.2823 -43.2964 473.6877)" style="fill:#FFA840;" cx="294.917" cy="265.779" rx="39.682" ry="39.682"/>
						<g>
							<path style="fill:#FFC943;" d="M332.144,252.036l-60.369,45.98c1.954,1.405,4.044,2.643,6.257,3.682l55.999-42.652
								C333.617,256.637,332.98,254.293,332.144,252.036z"/>
							<path style="fill:#FFC943;" d="M330.049,247.347c-4.498-8.555-12.054-15.368-21.433-18.808l-53.241,40.551
								c0.825,9.955,5.385,19.051,12.437,25.66L330.049,247.347z"/>
						</g>
						
							<ellipse transform="matrix(0.3664 -0.9305 0.9305 0.3664 -60.4339 442.8106)" style="fill:#FFC943;" cx="294.917" cy="265.779" rx="32.668" ry="32.668"/>
						
							<ellipse transform="matrix(0.8253 -0.5647 0.5647 0.8253 -98.5644 212.9888)" style="fill:#FF833E;" cx="294.917" cy="265.779" rx="28.139" ry="28.139"/>
						<g>
							<path style="fill:#FFA840;" d="M320.764,254.726l-43.371,33.034c0.563,0.45,1.142,0.879,1.741,1.285l42.407-32.299
								C321.307,256.06,321.048,255.388,320.764,254.726z"/>
							<path style="fill:#FFA840;" d="M310.975,242.694l-42.58,32.431c1.399,3.958,3.665,7.533,6.602,10.486l44.334-33.767
								C317.263,248.229,314.419,245.095,310.975,242.694z"/>
						</g>
					</g>
				</g>
			</g>
			<path style="fill:#6636CE;" d="M134.265,304.197l115.676,89.006c3.351,2.573,8.153,1.942,10.726-1.409l62.987-82.034
				c2.573-3.351,1.942-8.153-1.409-10.726l-115.676-89.006c-3.351-2.573-8.153-1.942-10.726,1.409l-62.987,82.035
				C130.283,296.822,130.914,301.624,134.265,304.197z"/>
			<g>
				<path style="fill:#8F78FF;" d="M139.736,295.7l60.037-78.193c1.093-1.424,3.142-1.693,4.567-0.6l111.834,86.056
					c1.425,1.094,1.694,3.143,0.6,4.568l-60.036,78.192c-1.094,1.425-3.143,1.694-4.568,0.6l-111.833-86.056
					C138.911,299.173,138.642,297.124,139.736,295.7z M203.775,217.643c-1.019-0.782-2.484-0.59-3.266,0.429l-60.037,78.193
					c-0.783,1.019-0.59,2.485,0.429,3.268l111.833,86.056c1.02,0.783,2.485,0.59,3.268-0.429l60.036-78.192
					c0.782-1.019,0.59-2.485-0.429-3.268L203.775,217.643z"/>
			</g>
			
				<rect x="153.261" y="256.925" transform="matrix(-0.7932 -0.609 0.609 -0.7932 174.5682 603.1271)" style="fill:#8F78FF;" width="72.882" height="29.99"/>
			<g>
				
					<ellipse transform="matrix(0.9917 -0.1288 0.1288 0.9917 -34.8458 28.7856)" style="fill:#6636CE;" cx="205.052" cy="283.706" rx="10.151" ry="10.151"/>
			</g>
			<g>
				<path style="fill:#FFA840;" d="M198.86,278.951c-2.626,3.42-1.982,8.321,1.438,10.947c3.42,2.626,8.321,1.982,10.947-1.438
					c2.626-3.42,1.982-8.321-1.438-10.947C206.387,274.887,201.486,275.531,198.86,278.951z"/>
			</g>
			<g>
				<path style="fill:#FFC943;" d="M200.542,280.242c-1.913,2.491-1.444,6.061,1.047,7.974c2.491,1.913,6.061,1.444,7.974-1.047
					c1.913-2.491,1.444-6.061-1.047-7.974C206.025,277.282,202.454,277.751,200.542,280.242z"/>
			</g>
		</g>
		<g>
			<g>
				<g>
					<path style="fill:#FFB692;" d="M176.227,281.259c-0.189-8.127,11.487-6.27,11.487-6.27l7.209-4.026c0,0,3.307,6.576-3.761,8.69
						c0,0,6.54,3.351,11.965,2.468c6.622-1.078-0.03,13.279-6.126,16.318c-3.311,1.651-6.788-2.618-11.441-3.156
						C179.076,294.534,171.157,289.262,176.227,281.259z"/>
				</g>
				<g>
					<path style="fill:#D88D87;" d="M189.396,287.968l-0.271,0.535c0,0,6.587,4.42,13.215,4.753
						c0.207-0.299,0.408-0.601,0.602-0.909C200.271,292.461,195.441,291.926,189.396,287.968z"/>
					<path style="fill:#D88D87;" d="M187.682,292.068c0,0,5.897,4.049,11.113,5.173c0.282-0.232,0.562-0.486,0.839-0.753
						c-2.233-0.434-6.68-1.654-11.675-5.001L187.682,292.068z"/>
					<path style="fill:#D88D87;" d="M190.952,284.174c0,0,6.578,4.713,14.269,3.538c0.168-0.481,0.305-0.947,0.411-1.393
						c-2.991,0.548-8.289,0.745-14.471-2.502L190.952,284.174z"/>
				</g>
			</g>
			<g>
				<path style="fill:#FFB692;" d="M165.19,285.635c9.867,2.299,16.812,2.715,17.27,2.741l0.558-9.984
					c-0.166-0.01-16.831-1.043-34.76-8.749c-23.428-10.067-37.949-26.273-43.159-48.169l-9.728,2.315
					c5.921,24.883,22.946,43.96,49.235,55.168C152.015,282.115,159.15,284.228,165.19,285.635z"/>
			</g>
			<g>
				<path style="fill:#FFB692;" d="M165.19,285.635c9.867,2.299,16.812,2.715,17.27,2.741l0.558-9.984
					c-0.166-0.01-16.831-1.043-34.76-8.749c-23.428-10.067-37.949-26.273-43.159-48.169l-9.728,2.315
					c5.921,24.883,22.946,43.96,49.235,55.168C152.015,282.115,159.15,284.228,165.19,285.635z"/>
			</g>
			<path style="fill:#D88D87;" d="M153.243,271.634l-1.875,9.951c-1.924-0.684-3.883-1.435-5.868-2.261l4.03-9.148
				C150.777,270.692,152.017,271.18,153.243,271.634z"/>
			<g>
				<path style="fill:#FFC943;" d="M147.164,283.234l5.771-14.923c-27.003-10.441-42.499-28.593-46.152-54.017
					c-0.584-4.062-4.247-6.962-8.344-6.735l0,0c-4.669,0.259-8.151,4.458-7.488,9.087
					C96.541,255.623,124.145,274.333,147.164,283.234z"/>
			</g>
		</g>
		<g>
			<g>
				<g>
					<g>
						<path style="fill:#D88D87;" d="M146.923,167.767h-50.04c-2.387,0-4.322-1.935-4.322-4.322l0,0
							c0-2.387,1.935-4.322,4.322-4.322h50.04c2.387,0,4.322,1.935,4.322,4.322l0,0C151.245,165.832,149.31,167.767,146.923,167.767
							z"/>
					</g>
				</g>
			</g>
			<g>
				<g>
					<g>
						<path style="fill:#AA635F;" d="M94.823,163.445L94.823,163.445c0-1.138,0.922-2.06,2.059-2.06h50.04
							c1.137,0,2.06,0.922,2.06,2.06l0,0c0,1.138-0.922,2.06-2.059,2.06h-50.04C95.745,165.505,94.823,164.583,94.823,163.445z"/>
					</g>
				</g>
			</g>
			<g>
				<g>
					<g>
						<path style="fill:#FFB692;" d="M121.903,193.37L121.903,193.37c-5.536,0-21.866-6.558-21.866-19.884l-2.263-25.074
							c0-12.776,10.357-23.132,23.132-23.132h1.993c12.775,0,23.132,10.356,23.132,23.132l-2.263,25.074
							C143.768,186.811,129.777,193.37,121.903,193.37z"/>
					</g>
				</g>
			</g>
			<path style="fill:#D88D87;" d="M146.031,148.412c0-10.322-6.763-19.062-16.098-22.039h-16.061
				c-9.335,2.977-16.098,11.717-16.098,22.039l0.52,5.757l47.402-2.045L146.031,148.412z"/>
			<g>
				<path style="fill:#252538;" d="M124.967,154.854c1.466-0.634,3.017-1.147,4.622-1.256c1.592-0.113,3.201-0.064,4.73,0.317
					c1.53,0.352,3.012,0.853,4.387,1.557c1.377,0.692,2.682,1.518,3.827,2.521c-1.328-0.735-2.72-1.316-4.131-1.786
					c-1.419-0.447-2.857-0.793-4.306-0.94c-1.447-0.159-2.895-0.142-4.299,0.084l-1.052,0.167l-1.025,0.282
					c-0.695,0.147-1.328,0.486-2.008,0.693L124.967,154.854z"/>
			</g>
			<g>
				<path style="fill:#252538;" d="M118.093,156.492c-0.68-0.207-1.313-0.546-2.008-0.693l-1.025-0.282l-1.052-0.167
					c-1.404-0.225-2.852-0.243-4.299-0.084c-1.449,0.147-2.887,0.494-4.306,0.94c-1.411,0.47-2.802,1.051-4.131,1.786
					c1.145-1.003,2.451-1.829,3.827-2.521c1.375-0.703,2.857-1.205,4.387-1.557c1.529-0.382,3.138-0.431,4.73-0.317
					c1.605,0.109,3.155,0.622,4.622,1.256L118.093,156.492z"/>
			</g>
			<g>
				<g>
					<g>
						<path style="fill:#FFFFFF;" d="M136.187,161.78c0,2.837-2.185,4.351-4.88,4.351s-4.88-1.513-4.88-4.351
							c0-2.837,2.185-4.222,4.88-4.222S136.187,158.943,136.187,161.78z"/>
						<g>
							<path style="fill:#252538;" d="M126.274,161.78c-0.062-0.624,0.015-1.273,0.233-1.891c0.235-0.61,0.633-1.173,1.145-1.598
								c1.035-0.862,2.386-1.163,3.655-1.171c1.268,0.011,2.619,0.312,3.652,1.175c0.511,0.424,0.911,0.985,1.144,1.596
								c0.219,0.617,0.296,1.266,0.236,1.889h-0.304c-0.108-1.179-0.618-2.273-1.532-2.903c-0.906-0.633-2.056-0.884-3.197-0.882
								c-1.141,0.001-2.29,0.252-3.194,0.885c-0.914,0.628-1.422,1.721-1.535,2.899H126.274z"/>
						</g>
						<path style="fill:#252538;" d="M132.539,158.195c-1.977,0.002-3.579,1.607-3.577,3.584c0.002,1.978,1.607,3.579,3.584,3.577
							c1.977-0.002,3.579-1.607,3.577-3.584C136.121,159.794,134.516,158.193,132.539,158.195z"/>
					</g>
				</g>
				<g>
					<g>
						<path style="fill:#FFFFFF;" d="M107.242,161.78c0,2.837,2.185,4.351,4.88,4.351c2.695,0,4.88-1.513,4.88-4.351
							c0-2.837-2.185-4.222-4.88-4.222C109.427,157.558,107.242,158.943,107.242,161.78z"/>
						<g>
							<path style="fill:#252538;" d="M116.851,161.78c-0.112-1.178-0.621-2.271-1.534-2.899c-0.904-0.633-2.053-0.885-3.194-0.885
								c-1.141-0.003-2.291,0.249-3.197,0.882c-0.914,0.63-1.424,1.724-1.532,2.903h-0.304c-0.06-0.624,0.017-1.272,0.236-1.889
								c0.233-0.611,0.633-1.172,1.144-1.596c1.033-0.863,2.384-1.164,3.652-1.175c1.268,0.008,2.619,0.309,3.655,1.171
								c0.512,0.425,0.91,0.988,1.145,1.598c0.218,0.618,0.294,1.267,0.233,1.891H116.851z"/>
						</g>
						<path style="fill:#252538;" d="M113.631,158.195c1.978,0.002,3.579,1.607,3.577,3.584c-0.002,1.978-1.607,3.579-3.584,3.577
							c-1.977-0.002-3.579-1.607-3.577-3.584C110.049,159.794,111.654,158.193,113.631,158.195z"/>
					</g>
				</g>
				<path style="fill:#BA726E;" d="M125.812,172.741h-7.239v-0.526c0-1.994,1.62-3.61,3.619-3.61l0,0
					c1.999,0,3.619,1.616,3.619,3.61V172.741z"/>
				<path style="fill:#D88D87;" d="M122.193,173.615L122.193,173.615c-1.293,0-2.341-1.048-2.341-2.342v-8.931
					c0-1.293,1.048-2.342,2.341-2.342l0,0c1.293,0,2.341,1.048,2.341,2.342v8.931C124.534,172.566,123.486,173.615,122.193,173.615z
					"/>
				<g>
					<path style="fill:#D88D87;" d="M126.828,176.215c-2.182-1.216-2.652-1.959-4.526-0.804c0,0-1.367-0.974-2.357-0.454
						c-0.99,0.52-1.974,1.645-1.974,1.645l4.451,0.755L126.828,176.215z"/>
					<path style="fill:#BA726E;" d="M127.26,178.093c0.247,1.251,0.376,4.581-3.884,5.198c-4.333,0.627-6.502-2.448-5.768-4.307
						C118.342,177.124,127.26,178.093,127.26,178.093z"/>
					<g>
						<g>
							<path style="fill:#252538;" d="M119.337,176.022c1.72,0.142,4.151,0.227,6.538-0.082c1.57-0.204,2.378,1.925,1.238,3.31
								c-1.213,1.473-3.015,2.692-5.57,2.305c-2.094-0.317-3.272-1.175-3.923-2.138
								C116.699,178.055,117.804,175.895,119.337,176.022z"/>
						</g>
						<g>
							<path style="fill:#FF9292;" d="M121.543,181.555c2.555,0.387,4.357-0.832,5.57-2.305c0.171-0.208,0.293-0.433,0.38-0.663
								c-0.791-0.616-1.937-1.065-3.608-1.105c-2.582-0.06-4.202,1.379-5.204,2.995c-0.002,0.003-0.003,0.007-0.005,0.01
								C119.357,180.974,120.282,181.364,121.543,181.555z"/>
						</g>
						<g>
							<path style="fill:#FFABAB;" d="M120.843,179.222c0.144,0.482,1.106,0.643,2.15,0.36c1.044-0.284,1.773-0.904,1.63-1.386
								c-0.144-0.482-1.106-0.643-2.15-0.36C121.429,178.119,120.699,178.74,120.843,179.222z"/>
						</g>
						<g>
							<path style="fill:#FFFFFF;" d="M119.337,176.022c1.72,0.142,4.151,0.227,6.538-0.082c0.964-0.125,1.639,0.63,1.753,1.552
								c-1.56,0.833-3.742,1.283-6.128,1.143c-1.53-0.09-2.948-0.413-4.151-0.899C117.575,176.771,118.37,175.942,119.337,176.022z"
								/>
						</g>
					</g>
				</g>
			</g>
			<g>
				
					<line style="fill:none;stroke:#FFFFFF;stroke-width:0.3356;stroke-linecap:round;stroke-miterlimit:10;" x1="97.515" y1="175.547" x2="97.515" y2="167.059"/>
				<path style="fill:#FFB522;" d="M99.261,175.547c0,0.965-0.782,1.747-1.746,1.747c-0.965,0-1.747-0.782-1.747-1.747
					c0-0.964,0.782-1.746,1.747-1.746C98.479,173.8,99.261,174.582,99.261,175.547z"/>
			</g>
			<g>
				
					<line style="fill:none;stroke:#FFFFFF;stroke-width:0.3356;stroke-linecap:round;stroke-miterlimit:10;" x1="146.106" y1="175.547" x2="146.106" y2="167.059"/>
				<circle style="fill:#FFB522;" cx="146.106" cy="175.547" r="1.747"/>
			</g>
		</g>
		<path style="fill:#252538;" d="M131.921,139.856l2.758,10.997c6.751,0.514,12.956,1.394,18.534,2.449
			c-0.412-1.936-0.872-3.769-1.388-5.444c-4.841-15.72-16.036-24.339-29.828-24.417l0-0.004c-0.032,0-0.063,0.002-0.095,0.002
			c-0.032,0-0.063-0.002-0.095-0.002l0,0.004c-13.792,0.079-24.987,8.698-29.828,24.417c-0.516,1.675-0.976,3.509-1.388,5.445
			c3.818-0.722,7.933-1.361,12.315-1.859l2.816-5.541l-1.066,5.352c5.471-0.563,11.339-0.9,17.565-0.888
			c3.397,0.007,6.684,0.118,9.861,0.311L131.921,139.856z"/>
		<path style="fill:#4C4C68;" d="M146.106,136.022c-1.33-1.861-2.799-3.524-4.39-4.984c-4.372,6.242-11.613,10.327-19.813,10.327
			s-15.44-4.085-19.813-10.327c-1.591,1.46-3.06,3.123-4.39,4.984c6.372,5.852,14.87,9.426,24.203,9.426
			c3.501,0,6.883-0.505,10.081-1.442l-0.062-4.15l0.971,3.87C137.859,142.126,142.352,139.47,146.106,136.022z"/>
	</g>
</g>
</svg>
